<?xml version="1.0" standalone="no"?>
<!DOCTYPE svg PUBLIC "-//W3C//DTD SVG 20010904//EN"
 "http://www.w3.org/TR/2001/REC-SVG-20010904/DTD/svg10.dtd">
<svg version="1.0" xmlns="http://www.w3.org/2000/svg"
 width="427.000000pt" height="427.000000pt" viewBox="0 0 427.000000 427.000000"
 preserveAspectRatio="xMidYMid meet">

<g transform="translate(0.000000,427.000000) scale(0.100000,-0.100000)"
fill="#000000" stroke="none">
<path d="M1855 3853 c-178 -23 -353 -73 -502 -143 -730 -344 -1085 -1178 -828
-1946 136 -407 444 -751 837 -933 364 -169 771 -194 1153 -70 555 179 952 625
1076 1209 30 141 33 437 5 575 -69 351 -212 622 -452 858 -307 302 -697 460
-1124 455 -74 0 -148 -3 -165 -5z m790 -683 l48 -49 -84 -3 c-70 -3 -84 -6
-87 -20 -3 -16 7 -18 105 -18 l109 0 34 -35 34 -35 -267 0 c-267 0 -267 0
-267 -22 l0 -21 281 6 282 6 30 -32 30 -32 -239 -5 c-204 -4 -239 -7 -239 -20
0 -13 36 -15 258 -16 l259 -1 61 -61 62 -62 -393 0 -392 0 0 -352 0 -353 -240
240 -240 240 0 112 0 113 -128 0 -127 0 -130 133 c-72 72 -175 178 -230 235
l-100 102 761 0 760 0 49 -50z m-375 -1707 c0 -200 -3 -363 -7 -363 -5 0 -113
105 -240 232 l-233 233 0 370 0 370 240 -240 240 -240 0 -362z"/>
</g>
</svg>
